<svg xmlns="http://www.w3.org/2000/svg" viewBox="0 0 64 64">
  <rect x="2" y="2" width="60" height="60" rx="15" fill="#fbf8ee" stroke="#d9caa3" stroke-width="2"/>
  <g transform="translate(8,7) scale(2)" fill="none" stroke="#31604d" stroke-width="0.75" stroke-linecap="round" stroke-linejoin="round">
    <path d="M12 11c-2.5 0-3.5 1-3.5 2.2 0 1 1 1.5 1 2.3 0 1-2 2-2 4 0 1.5 2 2.3 4.5 2.3s4.5-.8 4.5-2.3c0-2-2-3-2-4 0-.8 1-1.3 1-2.3 0-1.2-1-2.2-3.5-2.2z"/>
    <circle cx="12" cy="14" r="1.1"/>
    <path d="M9.5 18.5h5"/>
    <path d="M11 11V5h2v6"/>
    <path d="M10.5 5V2.2c0-.6.4-1 .9-1h1.2c.5 0 .9.4.9 1V5"/>
    <path d="M9.5 2.2v.6M9.5 3.6v.6M14.5 2.2v.6M14.5 3.6v.6 M10.5 2.5H9.5M10.5 3.9H9.5M13.5 2.5h1M13.5 3.9h1"/>
  </g>
</svg>
